# AST/ASF file generated using VICON BodyLanguage
# -----------------------------------------------
:version 1.10
:name VICON
:units
  mass 1.0
  length 0.45
  angle deg
:documentation
   .ast/.asf automatically generated from VICON data using
   VICON BodyBuilder and BodyLanguage model FoxedUp or BRILLIANT.MOD
:root
   order TX TY TZ RX RY RZ
   axis XYZ
   position 0 0 0  
   orientation 0 0 0 
:bonedata
  begin
     id 1 
     name lhipjoint
     direction 0.645893 -0.654526 0.392961 
     length 2.38111 
     axis 0 0 0  XYZ
  end
  begin
     id 2 
     name lfemur
     direction 0.34202 -0.939693 0  
     length 6.6822  
     axis 0 0 20  XYZ
    dof rx ry rz
    limits (-160.0 20.0)
           (-70.0 70.0)
           (-60.0 70.0)
  end
  begin
     id 3 
     name ltibia
     direction 0.34202 -0.939693 0   
     length 6.93904   
     axis 0 0 20   XYZ
    dof rx
    limits (-10.0 170.0)
  end
  begin
     id 4 
     name lfoot
     direction 0.0694967 -0.190941 0.979138   
     length 2.13616   
     axis -90 7.62852e-016 20   XYZ
    dof rx rz
    limits (-45.0 90.0)
           (-70.0 20.0)
  end
  begin
     id 5 
     name ltoes
     direction 1.535e-011 -4.2202e-011 1   
     length 1.07536   
     axis -90 7.62852e-016 20   XYZ
    dof rx
    limits (-90.0 20.0)
  end
  begin
     id 6 
     name rhipjoint
     direction -0.700219 -0.612087 0.367481   
     length 2.54621  
     axis 0 0 0  XYZ 
  end
  begin
     id 7 
     name rfemur
     direction -0.34202 -0.939693 0   
     length 6.55353   
     axis 0 0 -20   XYZ
    dof rx ry rz
    limits (-160.0 20.0)
           (-70.0 70.0)
           (-70.0 60.0)
  end
  begin
     id 8 
     name rtibia
     direction -0.34202 -0.939693 0   
     length 6.8736   
     axis 0 0 -20   XYZ
    dof rx
    limits (-10.0 170.0)
 end
 begin
     id 9 
     name rfoot
     direction -0.0679995 -0.186827 0.980037   
     length 2.1218  
     axis -90 -7.62852e-016 -20   XYZ
    dof rx rz
    limits (-45.0 90.0)
           (-20.0 70.0)
  end
  begin
     id 10 
     name rtoes
     direction -1.53589e-011 -4.21772e-011 1   
     length 1.06864   
     axis -90 -7.62852e-016 -20   XYZ
    dof rx
    limits (-90.0 20.0)
  end
  begin
     id 11 
     name lowerback
     direction -0.0416607 0.996347 -0.0745409   
     length 2.12205   
     axis 0 0 0   XYZ
    dof rx ry rz
    limits (-20.0 45.0)
           (-30.0 30.0)
           (-30.0 30.0)
  end
  begin
     id 12 
     name upperback
     direction -0.000153993 0.999276 -0.0380568   
     length 2.12759   
     axis 0 0 0   XYZ
    dof rx ry rz
    limits (-20.0 45.0)
           (-30.0 30.0)
           (-30.0 30.0)
  end
  begin
     id 13 
     name thorax
     direction 0.0187671 0.999821 -0.00241421   
     length 2.13704   
     axis 0 0 0   XYZ
    dof rx ry rz
    limits (-20.0 45.0)
           (-30.0 30.0)
           (-30.0 30.0)
  end
  begin
     id 14 
     name lowerneck
     direction 0.0268157 0.964865 0.261374   
     length 1.65253   
     axis 0 0 0   XYZ
    dof rx ry rz
    limits (-20.0 45.0)
           (-30.0 30.0)
           (-30.0 30.0)
  end
  begin
     id 15 
     name upperneck
     direction 0.00263774 0.939908 -0.341418   
     length 1.72375   
     axis 0 0 0   XYZ
    dof rx ry rz
    limits (-20.0 45.0)
           (-30.0 30.0)
           (-30.0 30.0)
  end
  begin
     id 16
     name head
     direction -0.00526001 0.989001 -0.147818  
     length 1.74878  
     axis 0 0 0   XYZ
    dof rx ry rz
    limits (-20.0 45.0)
           (-30.0 30.0)
           (-30.0 30.0)
  end
  begin
     id 17 
     name lclavicle
     direction 0.881214 0.461162 -0.103884  
     length 3.25108  
     axis 0 0 0   XYZ
    dof ry rz
    limits (-20.0 10.0)
           (0.0 20.0)
  end
  begin
     id 18 
     name lhumerus
     direction 1 -4.4899e-011 3.38092e-027   
     length 4.87408   
     axis 180 -30 -90   XYZ
    dof rx ry rz
    limits (-60.0 90.0)
           (-90.0 90.0)
           (-90.0 90.0)
  end
  begin
     id 19
     name lradius
     direction 1 -4.48931e-011 9.96288e-027   
     length 2.76729   
     axis 180 -30 -90   XYZ
    dof rx
    limits (-10.0 170.0)
  end
  begin
     id 20
     name lwrist
     direction 1 -4.4896e-011 1.50617e-026   
     length 1.38364   
     axis -9.31234e-015 90 90   XYZ
    dof ry
    limits (-180.0 0.0)
 end
  begin
     id 21 
     name lhand
     direction 1 -4.49038e-011 3.01286e-026   
     length 0.98922   
     axis -1.92217e-014 90 90   XYZ
    dof rx rz
    limits (-90.0 90.0)
           (-45.0 45.0)
  end
  begin
     id 22 
     name lfingers
     direction 1 -4.49051e-011 6.02588e-026   
     length 0.797535   
     axis -3.84436e-014 90 90   XYZ
    dof rx
    limits (0.0 90.0)
  end
  begin
     id 23
     name lthumb
     direction 0.707107 -6.34901e-011 0.707107   
     length 1.14511   
     axis -90 45 2.19363e-014   XYZ
    dof rx rz
    limits (-45.0 45.0)
           (-45.0 45.0)
  end
  begin
     id 24 
     name rclavicle
     direction -0.893894 0.441652 -0.0767889   
     length 3.29361  
     axis 0 0 0   XYZ 
    dof ry rz
    limits (-10.0 20.0)
           (-20.0 0.0)
  end
  begin
     id 25 
     name rhumerus
     direction -1 -4.48945e-011 8.0491e-028  
     length 4.71404   
     axis 180 30 90   XYZ
    dof rx ry rz
    limits (-90.0 60.0)
           (-90.0 90.0)
           (-90.0 90.0)
  end
  begin
     id 26 
     name rradius
     direction -1 -4.48986e-011 9.27795e-027   
     length 2.83468   
     axis 180 30 90   XYZ
    dof rx
    limits (-10.0 170.0)
  end
  begin
     id 27 
     name rwrist
     direction -1 -4.49029e-011 1.5064e-026   
     length 1.41734   
     axis -9.31234e-015 -90 -90   XYZ
    dof ry
    limits (-180.0 0.0)
  end
  begin
     id 28
     name rhand
     direction -1 -4.48857e-011 3.01165e-026   
     length 0.868195   
     axis -1.92217e-014 -90 -90   XYZ
    dof rx rz
    limits (-90.0 90.0)
           (-45.0 45.0)
  end
  begin
     id 29
     name rfingers
     direction -1 -4.49048e-011 6.02585e-026   
     length 0.699961   
     axis -3.84436e-014 -90 -90   XYZ
    dof rx
    limits (0.0 90.0)
  end
  begin
     id 30
     name rthumb
     direction -0.707107 -6.34854e-011 0.707107   
     length 1.00501   
     axis -90 -45 -2.19363e-014   XYZ
    dof rx rz
    limits (-45.0 45.0)
           (-45.0 45.0)
  end
:hierarchy
  begin
    root lhipjoint rhipjoint lowerback
    lhipjoint lfemur
    lfemur ltibia
    ltibia lfoot
    lfoot ltoes
    rhipjoint rfemur
    rfemur rtibia
    rtibia rfoot
    rfoot rtoes
    lowerback upperback
    upperback thorax
    thorax lowerneck lclavicle rclavicle
    lowerneck upperneck
    upperneck head
    lclavicle lhumerus
    lhumerus lradius
    lradius lwrist
    lwrist lhand lthumb
    lhand lfingers
    rclavicle rhumerus
    rhumerus rradius
    rradius rwrist
    rwrist rhand rthumb
    rhand rfingers
  end

#!OML:ASF H:\ManfredObstacles\Project 1\Capture day 2\Session 1\male.ASF
:FULLY-SPECIFIED
:DEGREES
158
root 2.39961 16.2038 -28.3937 -169.509 -2.59265 179.383
lowerback -1.54755 5.30297 -0.669381
upperback -0.198793 7.07176 -2.07712
thorax 0.840274 3.52468 -1.58644
lowerneck -36.2442 -4.94008 -4.18675
upperneck 37.9038 -8.5736 3.97495
head 22.1312 -3.54129 0.195545
rclavicle -3.31722e-014 3.10104e-014
rhumerus -44.1068 16.9782 -99.6576
rradius 100.539
rwrist 6.45788
rhand -11.3848 -0.582643
rfingers 7.12502
rthumb 14.6497 -30.0451
lclavicle -3.31722e-014 3.10104e-014
lhumerus -63.8367 -28.5209 97.9012
lradius 111.949
lwrist -18.6502
lhand -12.0528 1.53674
lfingers 7.12502
lthumb 14.0061 31.0449
rfemur -1.31122 1.75675 26.2083
rtibia 28.7568
rfoot 6.95087 -15.7864
rtoes -29.5594
lfemur -36.1376 -4.74901 -19.2685
ltibia 55.5179
lfoot 7.48855 21.5675
ltoes -4.85334
159
root 2.4021 16.2867 -28.746 -169.099 -2.9365 179.045
lowerback -2.01317 5.86254 -0.628417
upperback -0.126934 7.82251 -2.54823
thorax 1.26309 3.89645 -2.00691
lowerneck -36.7206 -5.91237 -5.2089
upperneck 37.787 -9.78499 4.81565
head 22.4399 -3.96439 0.45095
rclavicle 4.13969e-014 9.93923e-016
rhumerus -43.6155 16.5968 -99.6842
rradius 101.41
rwrist 6.65533
rhand -11.1222 -0.379561
rfingers 7.12502
rthumb 14.9028 -29.8235
lclavicle 4.13969e-014 9.93923e-016
lhumerus -63.588 -30.1247 97.82
lradius 112.338
lwrist -18.5293
lhand -12.0833 1.47784
lfingers 7.12502
lthumb 13.9767 30.988
rfemur -0.0244485 1.60181 25.9057
rtibia 27.1763
rfoot 9.56499 -15.1682
rtoes -29.327
lfemur -36.3009 -5.35783 -19.436
ltibia 51.3393
lfoot 7.74963 20.9064
ltoes -4.87736
160
root 2.40409 16.3633 -29.0997 -168.693 -3.23268 178.734
lowerback -2.51771 6.25391 -0.725524
upperback -0.0783338 8.35288 -2.96634
thorax 1.66033 4.15604 -2.29394
lowerneck -37.14 -6.60436 -5.84396
upperneck 37.6787 -10.7043 5.43488
head 22.6913 -4.26154 0.605596
rclavicle -1.95306e-014 1.74931e-014
rhumerus -43.286 16.6816 -99.9036
rradius 102.256
rwrist 6.78689
rhand -10.7907 -0.161737
rfingers 7.12502
rthumb 15.2221 -29.5817
lclavicle -1.95306e-014 1.74931e-014
lhumerus -63.3588 -31.2527 97.5007
lradius 112.757
lwrist -18.5088
lhand -12.1434 1.42547
lfingers 7.12502
lthumb 13.9188 30.9396
rfemur 1.20011 1.51659 25.6297
rtibia 25.6792
rfoot 12.2286 -14.6647
rtoes -28.9245
lfemur -36.3385 -5.90544 -19.5646
ltibia 47.0901
lfoot 8.23151 19.9107
ltoes -4.87294
161
root 2.40503 16.4324 -29.4536 -168.301 -3.48251 178.444
lowerback -3.02093 6.46393 -0.975673
upperback -0.0864113 8.64471 -3.31701
thorax 1.96103 4.29295 -2.44041
lowerneck -37.5615 -7.0213 -6.18734
upperneck 37.2145 -11.3041 5.86003
head 23.3893 -4.44266 0.677187
rclavicle 6.4605e-015 3.61788e-014
rhumerus -43.1844 17.2465 -100.337
rradius 103.083
rwrist 6.79425
rhand -10.411 0.0518221
rfingers 7.12502
rthumb 15.5879 -29.34
lclavicle 6.4605e-015 3.61788e-014
lhumerus -63.2143 -31.8658 96.9954
lradius 113.204
lwrist -18.5529
lhand -12.2331 1.38809
lfingers 7.12502
lthumb 13.8324 30.9082
rfemur 2.34999 1.47405 25.373
rtibia 24.3329
rfoot 14.87 -14.2702
rtoes -28.3482
lfemur -36.2674 -6.39716 -19.6661
ltibia 42.8557
lfoot 8.98103 18.5556
ltoes -4.84244
162
root 2.40405 16.4934 -29.8076 -167.937 -3.69246 178.202
lowerback -3.60391 6.50399 -1.44026
upperback -0.00959243 8.72897 -3.44832
thorax 2.31974 4.32302 -2.24438
lowerneck -38.127 -7.21317 -6.27764
upperneck 37.2185 -11.5433 5.98489
head 23.6362 -4.48837 0.675279
rclavicle -8.8658e-014 1.98785e-015
rhumerus -43.0889 18.3818 -100.621
rradius 103.874
rwrist 6.68309
rhand -10.0551 0.262279
rfingers 7.12502
rthumb 15.9306 -29.1025
lclavicle -8.8658e-014 1.98785e-015
lhumerus -62.8708 -31.922 96.4778
lradius 113.613
lwrist -18.6168
lhand -12.3189 1.3825
lfingers 7.12502
lthumb 13.7497 30.9082
rfemur 3.41143 1.45947 25.1594
rtibia 23.2069
rfoot 17.4005 -13.9883
rtoes -27.4418
lfemur -36.1071 -6.8278 -19.7253
ltibia 38.7422
lfoot 10.0062 16.8669
ltoes -4.83347
